<svg id="Layer_1" data-name="Layer 1" xmlns="http://www.w3.org/2000/svg" viewBox="0 0 20 20"><defs><style>.cls-1{fill:#f21cc9;}</style></defs><path class="cls-1" d="M8,2h8a6,6,0,0,1,6,6v8a6,6,0,0,1-6,6H8a6,6,0,0,1-6-6V8A6,6,0,0,1,8,2ZM8,4A4,4,0,0,0,4,8v8a4,4,0,0,0,4,4h8a4,4,0,0,0,4-4V8a4,4,0,0,0-4-4Zm6,7h3a1,1,0,0,1,0,2H14a1,1,0,0,1,0-2Zm-2,4h5a1,1,0,0,1,0,2H12a1,1,0,0,1,0-2Zm0-8h5a.9.9,0,0,1,1,1,.9.9,0,0,1-1,1H12a.9.9,0,0,1-1-1A.9.9,0,0,1,12,7ZM7.8,12.2l2.1-2.1a1.1,1.1,0,0,1,1.5,0,1,1,0,0,1,0,1.4h0L8.5,14.4a1,1,0,0,1-1.4,0h0L5.7,12.9a1,1,0,0,1,0-1.4,1.2,1.2,0,0,1,1.4,0Z" transform="translate(-2 -2)"/></svg>