<svg id="Capa_1" data-name="Capa 1" xmlns="http://www.w3.org/2000/svg" viewBox="0 0 490.3 490.1"><defs><style>.cls-1{fill:#fff;}</style></defs><path class="cls-1" d="M313.5,152.4,82.7,383.3a17.1,17.1,0,1,0,24.2,24.3L337.7,176.8a17.2,17.2,0,0,0,0-24.3A17,17,0,0,0,313.5,152.4Z" transform="translate(0 -0.1)"/><path class="cls-1" d="M431.1,191.9a17.1,17.1,0,0,0,12.1-5l25.2-25.2a74.5,74.5,0,0,0,0-105.4L434,21.9a74.6,74.6,0,0,0-105.4,0L303.4,47.1a17.2,17.2,0,0,0,0,24.3L419,187A17.4,17.4,0,0,0,431.1,191.9ZM352.9,46a40.3,40.3,0,0,1,57,0l34.4,34.4a40.3,40.3,0,0,1,0,56.9l-13.2,13.2L339.7,59.1Z" transform="translate(0 -0.1)"/><path class="cls-1" d="M162.8,467.2,406.3,223.7A17.2,17.2,0,0,0,382,199.4L142.7,438.9,37.1,453.1,51.3,347.5,279.9,118.9a17.2,17.2,0,1,0-24.3-24.3L23,327.4a17,17,0,0,0-4.9,9.8L.1,470.8a17.2,17.2,0,0,0,17,19.4l2.3-.2L153,472A16,16,0,0,0,162.8,467.2Z" transform="translate(0 -0.1)"/></svg>